<svg xmlns="http://www.w3.org/2000/svg" viewBox="0 0 48 48">
  <path fill="#EA4335" d="M24 9.5c3.54 0 6.71 1.22 9.21 3.61l6.85-6.85C35.91 2.38 30.42 0 24 0 14.62 0 6.51 5.38 2.56 13.22l7.98 6.2C12.43 13.72 17.75 9.5 24 9.5z"/>
  <path fill="#4285F4" d="M46.14 24.5c0-1.59-.14-3.12-.41-4.59H24v8.68h12.42c-.54 2.89-2.17 5.34-4.62 6.98l7.48 5.81C43.64 37.36 46.14 31.47 46.14 24.5z"/>
  <path fill="#FBBC05" d="M10.54 28.58A14.48 14.48 0 0 1 9.73 24c0-1.59.27-3.14.81-4.58l-7.98-6.2A23.96 23.96 0 0 0 0 24c0 3.87.93 7.53 2.56 10.78l7.98-6.2z"/>
  <path fill="#34A853" d="M24 48c6.42 0 11.81-2.12 15.75-5.78l-7.48-5.81c-2.08 1.4-4.74 2.23-8.27 2.23-6.25 0-11.57-4.22-13.46-9.92l-7.98 6.2C6.51 42.62 14.62 48 24 48z"/>
</svg>
